<mxfile host="app.diagrams.net" modified="2024-06-01T19:01:44.531Z" agent="Mozilla/5.0 (Windows NT 10.0; Win64; x64) AppleWebKit/537.36 (KHTML, like Gecko) Chrome/123.0.0.0 Safari/537.36 OPR/109.0.0.0" etag="7tiZGk6njYVoBEC6-DOb" version="24.4.13" type="device">
  <diagram name="PÃ¡gina-1" id="VuCQPQTBUQxKO5jLW3XD">
    <mxGraphModel dx="1161" dy="632" grid="1" gridSize="10" guides="1" tooltips="1" connect="1" arrows="1" fold="1" page="1" pageScale="1" pageWidth="827" pageHeight="1169" math="0" shadow="0">
      <root>
        <mxCell id="0" />
        <mxCell id="1" parent="0" />
        <mxCell id="1gJ1bWUDthgztnS0vzRr-17" style="edgeStyle=orthogonalEdgeStyle;rounded=0;orthogonalLoop=1;jettySize=auto;html=1;entryX=0;entryY=0.5;entryDx=0;entryDy=0;endArrow=none;endFill=0;" edge="1" parent="1" source="1gJ1bWUDthgztnS0vzRr-1" target="1gJ1bWUDthgztnS0vzRr-16">
          <mxGeometry relative="1" as="geometry" />
        </mxCell>
        <mxCell id="1gJ1bWUDthgztnS0vzRr-1" value=": ItemPedido" style="html=1;whiteSpace=wrap;fillColor=#fff2cc;strokeColor=#d6b656;gradientColor=#ffd966;" vertex="1" parent="1">
          <mxGeometry x="290" y="285" width="110" height="50" as="geometry" />
        </mxCell>
        <mxCell id="1gJ1bWUDthgztnS0vzRr-3" style="edgeStyle=orthogonalEdgeStyle;rounded=0;orthogonalLoop=1;jettySize=auto;html=1;endArrow=none;endFill=0;" edge="1" parent="1" source="1gJ1bWUDthgztnS0vzRr-2" target="1gJ1bWUDthgztnS0vzRr-1">
          <mxGeometry relative="1" as="geometry">
            <Array as="points">
              <mxPoint x="260" y="305" />
              <mxPoint x="260" y="305" />
            </Array>
          </mxGeometry>
        </mxCell>
        <mxCell id="1gJ1bWUDthgztnS0vzRr-36" style="edgeStyle=orthogonalEdgeStyle;rounded=0;orthogonalLoop=1;jettySize=auto;html=1;entryX=0;entryY=0.5;entryDx=0;entryDy=0;endArrow=none;endFill=0;" edge="1" parent="1" source="1gJ1bWUDthgztnS0vzRr-2" target="1gJ1bWUDthgztnS0vzRr-35">
          <mxGeometry relative="1" as="geometry">
            <Array as="points">
              <mxPoint x="230" y="340" />
              <mxPoint x="230" y="435" />
            </Array>
          </mxGeometry>
        </mxCell>
        <mxCell id="1gJ1bWUDthgztnS0vzRr-37" value="&lt;font style=&quot;font-size: 10px;&quot;&gt;9. avaliarEstabelecimento(avaliacao: Avaliacao)&lt;/font&gt;" style="edgeLabel;html=1;align=center;verticalAlign=middle;resizable=0;points=[];" vertex="1" connectable="0" parent="1gJ1bWUDthgztnS0vzRr-36">
          <mxGeometry x="0.0997" y="-1" relative="1" as="geometry">
            <mxPoint x="121" y="-5" as="offset" />
          </mxGeometry>
        </mxCell>
        <mxCell id="1gJ1bWUDthgztnS0vzRr-2" value="Cliente" style="shape=umlActor;verticalLabelPosition=bottom;verticalAlign=top;html=1;" vertex="1" parent="1">
          <mxGeometry x="110" y="280" width="30" height="60" as="geometry" />
        </mxCell>
        <mxCell id="1gJ1bWUDthgztnS0vzRr-6" value="" style="endArrow=open;startArrow=none;endFill=0;startFill=0;endSize=8;startSize=10;html=1;rounded=0;exitX=1;exitY=0.9;exitDx=0;exitDy=0;exitPerimeter=0;" edge="1" parent="1">
          <mxGeometry width="160" relative="1" as="geometry">
            <mxPoint x="190" y="290" as="sourcePoint" />
            <mxPoint x="240" y="290" as="targetPoint" />
          </mxGeometry>
        </mxCell>
        <mxCell id="1gJ1bWUDthgztnS0vzRr-9" value="2. fazerPedido()" style="edgeLabel;html=1;align=center;verticalAlign=middle;resizable=0;points=[];" vertex="1" connectable="0" parent="1gJ1bWUDthgztnS0vzRr-6">
          <mxGeometry x="0.16" y="4" relative="1" as="geometry">
            <mxPoint x="-9" y="-10" as="offset" />
          </mxGeometry>
        </mxCell>
        <mxCell id="1gJ1bWUDthgztnS0vzRr-12" style="edgeStyle=orthogonalEdgeStyle;rounded=0;orthogonalLoop=1;jettySize=auto;html=1;endArrow=none;endFill=0;" edge="1" parent="1" source="1gJ1bWUDthgztnS0vzRr-8" target="1gJ1bWUDthgztnS0vzRr-2">
          <mxGeometry relative="1" as="geometry" />
        </mxCell>
        <mxCell id="1gJ1bWUDthgztnS0vzRr-8" value=": ItemCardapio" style="html=1;whiteSpace=wrap;fillColor=#fff2cc;strokeColor=#d6b656;gradientColor=#ffd966;" vertex="1" parent="1">
          <mxGeometry x="70" y="450" width="110" height="50" as="geometry" />
        </mxCell>
        <mxCell id="1gJ1bWUDthgztnS0vzRr-13" value="" style="endArrow=open;startArrow=none;endFill=0;startFill=0;endSize=8;startSize=10;html=1;rounded=0;" edge="1" parent="1">
          <mxGeometry width="160" relative="1" as="geometry">
            <mxPoint x="140" y="380" as="sourcePoint" />
            <mxPoint x="140" y="450" as="targetPoint" />
          </mxGeometry>
        </mxCell>
        <mxCell id="1gJ1bWUDthgztnS0vzRr-14" value="1. getItems()" style="edgeLabel;html=1;align=center;verticalAlign=middle;resizable=0;points=[];" vertex="1" connectable="0" parent="1gJ1bWUDthgztnS0vzRr-13">
          <mxGeometry x="0.16" y="4" relative="1" as="geometry">
            <mxPoint x="36" y="-6" as="offset" />
          </mxGeometry>
        </mxCell>
        <mxCell id="1gJ1bWUDthgztnS0vzRr-20" style="edgeStyle=orthogonalEdgeStyle;rounded=0;orthogonalLoop=1;jettySize=auto;html=1;entryX=0.5;entryY=1;entryDx=0;entryDy=0;endArrow=none;endFill=0;" edge="1" parent="1" source="1gJ1bWUDthgztnS0vzRr-15" target="1gJ1bWUDthgztnS0vzRr-8">
          <mxGeometry relative="1" as="geometry" />
        </mxCell>
        <mxCell id="1gJ1bWUDthgztnS0vzRr-15" value=": Estabelecimento" style="html=1;whiteSpace=wrap;fillColor=#fff2cc;strokeColor=#d6b656;gradientColor=#ffd966;" vertex="1" parent="1">
          <mxGeometry x="290" y="550" width="110" height="50" as="geometry" />
        </mxCell>
        <mxCell id="1gJ1bWUDthgztnS0vzRr-25" style="edgeStyle=orthogonalEdgeStyle;rounded=0;orthogonalLoop=1;jettySize=auto;html=1;startArrow=none;startFill=0;endArrow=none;endFill=0;" edge="1" parent="1" source="1gJ1bWUDthgztnS0vzRr-16" target="1gJ1bWUDthgztnS0vzRr-15">
          <mxGeometry relative="1" as="geometry">
            <Array as="points">
              <mxPoint x="575" y="575" />
            </Array>
          </mxGeometry>
        </mxCell>
        <mxCell id="1gJ1bWUDthgztnS0vzRr-16" value=": Pedido" style="html=1;whiteSpace=wrap;fillColor=#fff2cc;strokeColor=#d6b656;gradientColor=#ffd966;" vertex="1" parent="1">
          <mxGeometry x="520" y="285" width="110" height="50" as="geometry" />
        </mxCell>
        <mxCell id="1gJ1bWUDthgztnS0vzRr-18" value="" style="endArrow=open;startArrow=none;endFill=0;startFill=0;endSize=8;startSize=10;html=1;rounded=0;exitX=1;exitY=0.9;exitDx=0;exitDy=0;exitPerimeter=0;" edge="1" parent="1">
          <mxGeometry width="160" relative="1" as="geometry">
            <mxPoint x="440" y="300" as="sourcePoint" />
            <mxPoint x="490" y="300" as="targetPoint" />
          </mxGeometry>
        </mxCell>
        <mxCell id="1gJ1bWUDthgztnS0vzRr-19" value="3. calcularSubtotal()" style="edgeLabel;html=1;align=center;verticalAlign=middle;resizable=0;points=[];" vertex="1" connectable="0" parent="1gJ1bWUDthgztnS0vzRr-18">
          <mxGeometry x="0.16" y="4" relative="1" as="geometry">
            <mxPoint x="-9" y="-11" as="offset" />
          </mxGeometry>
        </mxCell>
        <mxCell id="1gJ1bWUDthgztnS0vzRr-23" value="" style="endArrow=none;startArrow=open;endFill=0;startFill=0;endSize=8;startSize=10;html=1;rounded=0;exitX=1;exitY=0.9;exitDx=0;exitDy=0;exitPerimeter=0;" edge="1" parent="1">
          <mxGeometry width="160" relative="1" as="geometry">
            <mxPoint x="190" y="560" as="sourcePoint" />
            <mxPoint x="240" y="560" as="targetPoint" />
          </mxGeometry>
        </mxCell>
        <mxCell id="1gJ1bWUDthgztnS0vzRr-24" value="7.1. removerItemCardapio(item:itensCardapio)" style="edgeLabel;html=1;align=center;verticalAlign=middle;resizable=0;points=[];" vertex="1" connectable="0" parent="1gJ1bWUDthgztnS0vzRr-23">
          <mxGeometry x="0.16" y="4" relative="1" as="geometry">
            <mxPoint x="18" y="-28" as="offset" />
          </mxGeometry>
        </mxCell>
        <mxCell id="1gJ1bWUDthgztnS0vzRr-27" value="" style="endArrow=none;startArrow=open;endFill=0;startFill=0;endSize=8;startSize=10;html=1;rounded=0;exitX=1;exitY=0.9;exitDx=0;exitDy=0;exitPerimeter=0;" edge="1" parent="1">
          <mxGeometry width="160" relative="1" as="geometry">
            <mxPoint x="590" y="450" as="sourcePoint" />
            <mxPoint x="590" y="500" as="targetPoint" />
          </mxGeometry>
        </mxCell>
        <mxCell id="1gJ1bWUDthgztnS0vzRr-28" value="5. getPedidos()" style="edgeLabel;html=1;align=center;verticalAlign=middle;resizable=0;points=[];" vertex="1" connectable="0" parent="1gJ1bWUDthgztnS0vzRr-27">
          <mxGeometry x="0.16" y="4" relative="1" as="geometry">
            <mxPoint x="46" y="-9" as="offset" />
          </mxGeometry>
        </mxCell>
        <mxCell id="1gJ1bWUDthgztnS0vzRr-29" value="" style="endArrow=none;startArrow=open;endFill=0;startFill=0;endSize=8;startSize=10;html=1;rounded=0;" edge="1" parent="1">
          <mxGeometry width="160" relative="1" as="geometry">
            <mxPoint x="560" y="505" as="sourcePoint" />
            <mxPoint x="560" y="450" as="targetPoint" />
          </mxGeometry>
        </mxCell>
        <mxCell id="1gJ1bWUDthgztnS0vzRr-30" value="4. calcularTotal()" style="edgeLabel;html=1;align=center;verticalAlign=middle;resizable=0;points=[];" vertex="1" connectable="0" parent="1gJ1bWUDthgztnS0vzRr-29">
          <mxGeometry x="0.16" y="4" relative="1" as="geometry">
            <mxPoint x="-46" y="-13" as="offset" />
          </mxGeometry>
        </mxCell>
        <mxCell id="1gJ1bWUDthgztnS0vzRr-31" value="2.1. adiconarItemPedido(item: itemCardapio, quantidade: int)" style="edgeLabel;html=1;align=center;verticalAlign=middle;resizable=0;points=[];" vertex="1" connectable="0" parent="1">
          <mxGeometry x="210" y="260" as="geometry" />
        </mxCell>
        <mxCell id="1gJ1bWUDthgztnS0vzRr-32" value="6. atualizarStatus(status:Enum)" style="edgeLabel;html=1;align=center;verticalAlign=middle;resizable=0;points=[];" vertex="1" connectable="0" parent="1">
          <mxGeometry x="680" y="485" as="geometry" />
        </mxCell>
        <mxCell id="1gJ1bWUDthgztnS0vzRr-33" value="7. adiconarItemCardapio(item:itensCardapio)" style="edgeLabel;html=1;align=center;verticalAlign=middle;resizable=0;points=[];" vertex="1" connectable="0" parent="1">
          <mxGeometry x="240" y="514" as="geometry" />
        </mxCell>
        <mxCell id="1gJ1bWUDthgztnS0vzRr-34" value="7.2. atualizarPreco(novoPreco: float)" style="edgeLabel;html=1;align=center;verticalAlign=middle;resizable=0;points=[];" vertex="1" connectable="0" parent="1">
          <mxGeometry x="246.04761904761904" y="541" as="geometry" />
        </mxCell>
        <mxCell id="1gJ1bWUDthgztnS0vzRr-40" style="edgeStyle=orthogonalEdgeStyle;rounded=0;orthogonalLoop=1;jettySize=auto;html=1;exitX=0.75;exitY=1;exitDx=0;exitDy=0;endArrow=none;endFill=0;" edge="1" parent="1" source="1gJ1bWUDthgztnS0vzRr-35" target="1gJ1bWUDthgztnS0vzRr-15">
          <mxGeometry relative="1" as="geometry">
            <Array as="points">
              <mxPoint x="373" y="505" />
              <mxPoint x="373" y="505" />
            </Array>
          </mxGeometry>
        </mxCell>
        <mxCell id="1gJ1bWUDthgztnS0vzRr-35" value=": Avaliacao" style="html=1;whiteSpace=wrap;fillColor=#fff2cc;strokeColor=#d6b656;gradientColor=#ffd966;" vertex="1" parent="1">
          <mxGeometry x="290" y="410" width="110" height="50" as="geometry" />
        </mxCell>
        <mxCell id="1gJ1bWUDthgztnS0vzRr-38" value="" style="endArrow=open;startArrow=none;endFill=0;startFill=0;endSize=8;startSize=10;html=1;rounded=0;" edge="1" parent="1">
          <mxGeometry width="160" relative="1" as="geometry">
            <mxPoint x="240" y="360" as="sourcePoint" />
            <mxPoint x="240" y="400" as="targetPoint" />
          </mxGeometry>
        </mxCell>
        <mxCell id="1gJ1bWUDthgztnS0vzRr-41" value="" style="endArrow=open;startArrow=none;endFill=0;startFill=0;endSize=8;startSize=10;html=1;rounded=0;" edge="1" parent="1">
          <mxGeometry width="160" relative="1" as="geometry">
            <mxPoint x="380" y="525" as="sourcePoint" />
            <mxPoint x="380" y="485" as="targetPoint" />
          </mxGeometry>
        </mxCell>
        <mxCell id="1gJ1bWUDthgztnS0vzRr-42" value="&lt;div&gt;10. listarAvaliacoes()&amp;nbsp;&lt;/div&gt;" style="edgeLabel;html=1;align=center;verticalAlign=middle;resizable=0;points=[];" vertex="1" connectable="0" parent="1">
          <mxGeometry x="430" y="513.9952380952382" as="geometry">
            <mxPoint x="3" y="-4" as="offset" />
          </mxGeometry>
        </mxCell>
        <mxCell id="1gJ1bWUDthgztnS0vzRr-43" value="8. concluirPedido()" style="edgeLabel;html=1;align=center;verticalAlign=middle;resizable=0;points=[];" vertex="1" connectable="0" parent="1">
          <mxGeometry x="216" y="244" as="geometry" />
        </mxCell>
      </root>
    </mxGraphModel>
  </diagram>
</mxfile>
